<mxfile host="app.diagrams.net" modified="2021-06-06T15:36:10.363Z" agent="5.0 (Windows NT 10.0; Win64; x64) AppleWebKit/537.36 (KHTML, like Gecko) Chrome/91.0.4472.77 Safari/537.36" etag="iC2LbIdSc92pI6pAcbDY" version="14.7.6" type="github">
  <diagram id="baFzMBZQvumeQl2_fwXA" name="Page-1">
    <mxGraphModel dx="1865" dy="547" grid="1" gridSize="10" guides="1" tooltips="1" connect="1" arrows="1" fold="1" page="1" pageScale="1" pageWidth="827" pageHeight="1169" math="0" shadow="0">
      <root>
        <mxCell id="0" />
        <mxCell id="1" parent="0" />
        <mxCell id="FvHJdSDC7yqyWIZDWJ_g-3" style="edgeStyle=orthogonalEdgeStyle;rounded=0;orthogonalLoop=1;jettySize=auto;html=1;exitX=0.5;exitY=1;exitDx=0;exitDy=0;" edge="1" parent="1" source="uCSQ6clWTxPqFR-X0H4s-1" target="FvHJdSDC7yqyWIZDWJ_g-1">
          <mxGeometry relative="1" as="geometry" />
        </mxCell>
        <mxCell id="FvHJdSDC7yqyWIZDWJ_g-7" style="edgeStyle=orthogonalEdgeStyle;rounded=0;orthogonalLoop=1;jettySize=auto;html=1;exitX=0.5;exitY=1;exitDx=0;exitDy=0;" edge="1" parent="1" source="uCSQ6clWTxPqFR-X0H4s-1" target="FvHJdSDC7yqyWIZDWJ_g-5">
          <mxGeometry relative="1" as="geometry" />
        </mxCell>
        <mxCell id="uCSQ6clWTxPqFR-X0H4s-1" value="&lt;font face=&quot;Consolas&quot; style=&quot;font-size: 17px&quot;&gt;&lt;span style=&quot;color: rgb(16 , 201 , 151)&quot;&gt;VkInstance&lt;/span&gt;&lt;br&gt;&lt;span&gt;&lt;font color=&quot;#1a1a1a&quot; style=&quot;font-size: 17px&quot;&gt;instance&lt;/font&gt;&lt;/span&gt;&lt;br&gt;&lt;/font&gt;" style="rounded=1;whiteSpace=wrap;html=1;" parent="1" vertex="1">
          <mxGeometry x="185" y="150" width="120" height="50" as="geometry" />
        </mxCell>
        <mxCell id="FvHJdSDC7yqyWIZDWJ_g-1" value="&lt;font face=&quot;Consolas&quot;&gt;&lt;font color=&quot;#10c997&quot;&gt;&lt;span style=&quot;font-size: 17px&quot;&gt;VkSurfaceKHR&lt;/span&gt;&lt;/font&gt;&lt;br&gt;&lt;font color=&quot;#1a1a1a&quot;&gt;&lt;span style=&quot;font-size: 17px&quot;&gt;surface&lt;/span&gt;&lt;/font&gt;&lt;br&gt;&lt;/font&gt;" style="rounded=1;whiteSpace=wrap;html=1;" vertex="1" parent="1">
          <mxGeometry x="290" y="300" width="130" height="50" as="geometry" />
        </mxCell>
        <mxCell id="FvHJdSDC7yqyWIZDWJ_g-4" value="" style="edgeStyle=orthogonalEdgeStyle;rounded=0;orthogonalLoop=1;jettySize=auto;exitX=0.5;exitY=1;exitDx=0;exitDy=0;entryX=0.5;entryY=0;entryDx=0;entryDy=0;html=1;labelPosition=center;verticalLabelPosition=bottom;align=center;verticalAlign=top;textDirection=ltr;" edge="1" parent="1" source="FvHJdSDC7yqyWIZDWJ_g-2" target="FvHJdSDC7yqyWIZDWJ_g-1">
          <mxGeometry relative="1" as="geometry" />
        </mxCell>
        <mxCell id="FvHJdSDC7yqyWIZDWJ_g-19" value="&lt;font face=&quot;Consolas&quot; color=&quot;#cfcf00&quot;&gt;glfwCreateWindowSurface&lt;/font&gt;" style="edgeLabel;html=1;align=center;verticalAlign=middle;resizable=0;points=[];" vertex="1" connectable="0" parent="FvHJdSDC7yqyWIZDWJ_g-4">
          <mxGeometry x="0.1239" y="1" relative="1" as="geometry">
            <mxPoint x="-35" y="19" as="offset" />
          </mxGeometry>
        </mxCell>
        <mxCell id="FvHJdSDC7yqyWIZDWJ_g-2" value="&lt;font face=&quot;Consolas&quot;&gt;&lt;font color=&quot;#10c997&quot;&gt;&lt;span style=&quot;font-size: 17px&quot;&gt;GLFWwindow*&lt;/span&gt;&lt;/font&gt;&lt;br&gt;&lt;font color=&quot;#1a1a1a&quot;&gt;&lt;span style=&quot;font-size: 17px&quot;&gt;window&lt;/span&gt;&lt;/font&gt;&lt;br&gt;&lt;/font&gt;" style="rounded=1;whiteSpace=wrap;html=1;" vertex="1" parent="1">
          <mxGeometry x="400" y="150" width="120" height="50" as="geometry" />
        </mxCell>
        <mxCell id="FvHJdSDC7yqyWIZDWJ_g-9" style="edgeStyle=orthogonalEdgeStyle;rounded=0;orthogonalLoop=1;jettySize=auto;html=1;exitX=0.5;exitY=1;exitDx=0;exitDy=0;entryX=0.5;entryY=0;entryDx=0;entryDy=0;" edge="1" parent="1" source="FvHJdSDC7yqyWIZDWJ_g-5" target="FvHJdSDC7yqyWIZDWJ_g-6">
          <mxGeometry relative="1" as="geometry" />
        </mxCell>
        <mxCell id="FvHJdSDC7yqyWIZDWJ_g-5" value="&lt;font face=&quot;Consolas&quot;&gt;&lt;font color=&quot;#10c997&quot;&gt;&lt;span style=&quot;font-size: 17px&quot;&gt;VkPhysicalDevice&lt;/span&gt;&lt;/font&gt;&lt;br&gt;&lt;font color=&quot;#1a1a1a&quot;&gt;&lt;span style=&quot;font-size: 17px&quot;&gt;physicalDevice&lt;/span&gt;&lt;/font&gt;&lt;br&gt;&lt;/font&gt;" style="rounded=1;whiteSpace=wrap;html=1;" vertex="1" parent="1">
          <mxGeometry x="160" y="410" width="170" height="50" as="geometry" />
        </mxCell>
        <mxCell id="FvHJdSDC7yqyWIZDWJ_g-13" style="edgeStyle=orthogonalEdgeStyle;rounded=0;orthogonalLoop=1;jettySize=auto;html=1;exitX=0.5;exitY=1;exitDx=0;exitDy=0;entryX=0.5;entryY=0;entryDx=0;entryDy=0;" edge="1" parent="1" source="FvHJdSDC7yqyWIZDWJ_g-6" target="FvHJdSDC7yqyWIZDWJ_g-10">
          <mxGeometry relative="1" as="geometry">
            <Array as="points">
              <mxPoint x="245" y="610" />
              <mxPoint x="-20" y="610" />
            </Array>
          </mxGeometry>
        </mxCell>
        <mxCell id="FvHJdSDC7yqyWIZDWJ_g-14" style="edgeStyle=orthogonalEdgeStyle;rounded=0;orthogonalLoop=1;jettySize=auto;html=1;exitX=0.5;exitY=1;exitDx=0;exitDy=0;entryX=0.5;entryY=0;entryDx=0;entryDy=0;" edge="1" parent="1" source="FvHJdSDC7yqyWIZDWJ_g-6" target="FvHJdSDC7yqyWIZDWJ_g-12">
          <mxGeometry relative="1" as="geometry">
            <Array as="points">
              <mxPoint x="245" y="610" />
              <mxPoint x="145" y="610" />
            </Array>
          </mxGeometry>
        </mxCell>
        <mxCell id="FvHJdSDC7yqyWIZDWJ_g-47" style="edgeStyle=orthogonalEdgeStyle;rounded=0;orthogonalLoop=1;jettySize=auto;html=1;exitX=0.5;exitY=1;exitDx=0;exitDy=0;" edge="1" parent="1" source="FvHJdSDC7yqyWIZDWJ_g-6" target="FvHJdSDC7yqyWIZDWJ_g-41">
          <mxGeometry relative="1" as="geometry">
            <Array as="points">
              <mxPoint x="245" y="610" />
              <mxPoint x="760" y="610" />
              <mxPoint x="760" y="1080" />
              <mxPoint x="433" y="1080" />
            </Array>
          </mxGeometry>
        </mxCell>
        <mxCell id="FvHJdSDC7yqyWIZDWJ_g-59" style="edgeStyle=orthogonalEdgeStyle;rounded=0;orthogonalLoop=1;jettySize=auto;html=1;exitX=0.5;exitY=1;exitDx=0;exitDy=0;entryX=0.5;entryY=0;entryDx=0;entryDy=0;" edge="1" parent="1" source="FvHJdSDC7yqyWIZDWJ_g-6" target="FvHJdSDC7yqyWIZDWJ_g-11">
          <mxGeometry relative="1" as="geometry">
            <Array as="points">
              <mxPoint x="245" y="610" />
              <mxPoint x="320" y="610" />
            </Array>
          </mxGeometry>
        </mxCell>
        <mxCell id="FvHJdSDC7yqyWIZDWJ_g-60" style="edgeStyle=orthogonalEdgeStyle;rounded=0;orthogonalLoop=1;jettySize=auto;html=1;exitX=0.5;exitY=1;exitDx=0;exitDy=0;entryX=0.5;entryY=0;entryDx=0;entryDy=0;" edge="1" parent="1" source="FvHJdSDC7yqyWIZDWJ_g-6" target="FvHJdSDC7yqyWIZDWJ_g-29">
          <mxGeometry relative="1" as="geometry">
            <Array as="points">
              <mxPoint x="245" y="610" />
              <mxPoint x="450" y="610" />
              <mxPoint x="450" y="750" />
              <mxPoint x="320" y="750" />
            </Array>
          </mxGeometry>
        </mxCell>
        <mxCell id="FvHJdSDC7yqyWIZDWJ_g-61" style="edgeStyle=orthogonalEdgeStyle;rounded=0;orthogonalLoop=1;jettySize=auto;html=1;exitX=0.5;exitY=1;exitDx=0;exitDy=0;entryX=0.5;entryY=0;entryDx=0;entryDy=0;" edge="1" parent="1" source="FvHJdSDC7yqyWIZDWJ_g-6" target="FvHJdSDC7yqyWIZDWJ_g-32">
          <mxGeometry relative="1" as="geometry">
            <Array as="points">
              <mxPoint x="245" y="610" />
              <mxPoint x="520" y="610" />
              <mxPoint x="520" y="910" />
              <mxPoint x="320" y="910" />
            </Array>
          </mxGeometry>
        </mxCell>
        <mxCell id="FvHJdSDC7yqyWIZDWJ_g-62" style="edgeStyle=orthogonalEdgeStyle;rounded=0;orthogonalLoop=1;jettySize=auto;html=1;exitX=0.5;exitY=1;exitDx=0;exitDy=0;" edge="1" parent="1" source="FvHJdSDC7yqyWIZDWJ_g-6" target="FvHJdSDC7yqyWIZDWJ_g-39">
          <mxGeometry relative="1" as="geometry">
            <Array as="points">
              <mxPoint x="245" y="610" />
              <mxPoint x="611" y="610" />
            </Array>
          </mxGeometry>
        </mxCell>
        <mxCell id="FvHJdSDC7yqyWIZDWJ_g-64" style="edgeStyle=orthogonalEdgeStyle;rounded=0;orthogonalLoop=1;jettySize=auto;html=1;exitX=0.5;exitY=1;exitDx=0;exitDy=0;" edge="1" parent="1" source="FvHJdSDC7yqyWIZDWJ_g-6" target="FvHJdSDC7yqyWIZDWJ_g-40">
          <mxGeometry relative="1" as="geometry">
            <Array as="points">
              <mxPoint x="245" y="610" />
              <mxPoint x="-120" y="610" />
            </Array>
          </mxGeometry>
        </mxCell>
        <mxCell id="FvHJdSDC7yqyWIZDWJ_g-6" value="&lt;font face=&quot;Consolas&quot;&gt;&lt;font color=&quot;#10c997&quot;&gt;&lt;span style=&quot;font-size: 17px&quot;&gt;VkDevice&lt;/span&gt;&lt;/font&gt;&lt;br&gt;&lt;font color=&quot;#1a1a1a&quot;&gt;&lt;span style=&quot;font-size: 17px&quot;&gt;device&lt;/span&gt;&lt;/font&gt;&lt;br&gt;&lt;/font&gt;" style="rounded=1;whiteSpace=wrap;html=1;" vertex="1" parent="1">
          <mxGeometry x="195" y="510" width="100" height="50" as="geometry" />
        </mxCell>
        <mxCell id="FvHJdSDC7yqyWIZDWJ_g-10" value="&lt;font face=&quot;Consolas&quot;&gt;&lt;font color=&quot;#10c997&quot;&gt;&lt;span style=&quot;font-size: 17px&quot;&gt;VkQueue&lt;/span&gt;&lt;/font&gt;&lt;br&gt;&lt;font color=&quot;#1a1a1a&quot;&gt;&lt;span style=&quot;font-size: 17px&quot;&gt;graphicsQueue&lt;/span&gt;&lt;/font&gt;&lt;br&gt;&lt;/font&gt;" style="rounded=1;whiteSpace=wrap;html=1;" vertex="1" parent="1">
          <mxGeometry x="-90" y="670" width="140" height="50" as="geometry" />
        </mxCell>
        <mxCell id="FvHJdSDC7yqyWIZDWJ_g-56" style="edgeStyle=orthogonalEdgeStyle;rounded=0;orthogonalLoop=1;jettySize=auto;html=1;exitX=0.5;exitY=1;exitDx=0;exitDy=0;" edge="1" parent="1" source="FvHJdSDC7yqyWIZDWJ_g-11" target="FvHJdSDC7yqyWIZDWJ_g-29">
          <mxGeometry relative="1" as="geometry" />
        </mxCell>
        <mxCell id="FvHJdSDC7yqyWIZDWJ_g-11" value="&lt;font face=&quot;Consolas&quot;&gt;&lt;font color=&quot;#10c997&quot;&gt;&lt;span style=&quot;font-size: 17px&quot;&gt;VkSwapchainKHR&lt;/span&gt;&lt;/font&gt;&lt;br&gt;&lt;font color=&quot;#1a1a1a&quot;&gt;&lt;span style=&quot;font-size: 17px&quot;&gt;swapChain&lt;/span&gt;&lt;/font&gt;&lt;br&gt;&lt;/font&gt;" style="rounded=1;whiteSpace=wrap;html=1;" vertex="1" parent="1">
          <mxGeometry x="245" y="670" width="150" height="50" as="geometry" />
        </mxCell>
        <mxCell id="FvHJdSDC7yqyWIZDWJ_g-12" value="&lt;font face=&quot;Consolas&quot;&gt;&lt;font color=&quot;#10c997&quot;&gt;&lt;span style=&quot;font-size: 17px&quot;&gt;VkQueue&lt;/span&gt;&lt;/font&gt;&lt;br&gt;&lt;font color=&quot;#1a1a1a&quot;&gt;&lt;span style=&quot;font-size: 17px&quot;&gt;presentQueue&lt;/span&gt;&lt;/font&gt;&lt;br&gt;&lt;/font&gt;" style="rounded=1;whiteSpace=wrap;html=1;" vertex="1" parent="1">
          <mxGeometry x="80" y="670" width="130" height="50" as="geometry" />
        </mxCell>
        <mxCell id="FvHJdSDC7yqyWIZDWJ_g-20" value="&lt;font color=&quot;#cfcf00&quot; face=&quot;Consolas&quot;&gt;&lt;span style=&quot;font-size: 11px&quot;&gt;vkEnumeratePhysicalDevices&lt;/span&gt;&lt;/font&gt;" style="edgeLabel;html=1;align=center;verticalAlign=middle;resizable=0;points=[];" vertex="1" connectable="0" parent="1">
          <mxGeometry x="245" y="370" as="geometry" />
        </mxCell>
        <mxCell id="FvHJdSDC7yqyWIZDWJ_g-21" value="&lt;font color=&quot;#cfcf00&quot; face=&quot;Consolas&quot;&gt;&lt;span style=&quot;font-size: 11px&quot;&gt;vkCreateDevice&lt;/span&gt;&lt;/font&gt;" style="edgeLabel;html=1;align=center;verticalAlign=middle;resizable=0;points=[];" vertex="1" connectable="0" parent="1">
          <mxGeometry x="245" y="480" as="geometry" />
        </mxCell>
        <mxCell id="FvHJdSDC7yqyWIZDWJ_g-22" value="&lt;font color=&quot;#cfcf00&quot; face=&quot;Consolas&quot;&gt;&lt;span style=&quot;font-size: 11px&quot;&gt;vkGetDeviceQueue&lt;/span&gt;&lt;/font&gt;" style="edgeLabel;html=1;align=center;verticalAlign=middle;resizable=0;points=[];" vertex="1" connectable="0" parent="1">
          <mxGeometry x="-20" y="640" as="geometry" />
        </mxCell>
        <mxCell id="FvHJdSDC7yqyWIZDWJ_g-23" value="&lt;font color=&quot;#cfcf00&quot; face=&quot;Consolas&quot;&gt;&lt;span style=&quot;font-size: 11px&quot;&gt;vkCreateSwapchainKHR&lt;/span&gt;&lt;/font&gt;" style="edgeLabel;html=1;align=center;verticalAlign=middle;resizable=0;points=[];" vertex="1" connectable="0" parent="1">
          <mxGeometry x="305" y="650" as="geometry">
            <mxPoint x="8" y="-8" as="offset" />
          </mxGeometry>
        </mxCell>
        <mxCell id="FvHJdSDC7yqyWIZDWJ_g-24" value="&lt;font color=&quot;#cfcf00&quot; face=&quot;Consolas&quot;&gt;&lt;span style=&quot;font-size: 11px&quot;&gt;vkGetDeviceQueue&lt;/span&gt;&lt;/font&gt;" style="edgeLabel;html=1;align=center;verticalAlign=middle;resizable=0;points=[];" vertex="1" connectable="0" parent="1">
          <mxGeometry x="145" y="640" as="geometry" />
        </mxCell>
        <mxCell id="FvHJdSDC7yqyWIZDWJ_g-25" value="&lt;font color=&quot;#cfcf00&quot; face=&quot;Consolas&quot;&gt;&lt;span style=&quot;font-size: 11px&quot;&gt;vkCreateSwapchainKHR&lt;/span&gt;&lt;/font&gt;" style="edgeLabel;html=1;align=center;verticalAlign=middle;resizable=0;points=[];" vertex="1" connectable="0" parent="1">
          <mxGeometry x="1050" y="1230" as="geometry">
            <mxPoint x="8" y="-8" as="offset" />
          </mxGeometry>
        </mxCell>
        <mxCell id="FvHJdSDC7yqyWIZDWJ_g-26" value="&lt;font color=&quot;#cfcf00&quot; face=&quot;Consolas&quot;&gt;&lt;span style=&quot;font-size: 11px&quot;&gt;vkGetSwapchainImagesKHR&lt;/span&gt;&lt;/font&gt;" style="edgeLabel;html=1;align=center;verticalAlign=middle;resizable=0;points=[];" vertex="1" connectable="0" parent="1">
          <mxGeometry x="316.25" y="780" as="geometry">
            <mxPoint x="4" y="1" as="offset" />
          </mxGeometry>
        </mxCell>
        <mxCell id="FvHJdSDC7yqyWIZDWJ_g-33" style="edgeStyle=orthogonalEdgeStyle;rounded=0;orthogonalLoop=1;jettySize=auto;html=1;exitX=0.5;exitY=1;exitDx=0;exitDy=0;entryX=0.5;entryY=0;entryDx=0;entryDy=0;" edge="1" parent="1" source="FvHJdSDC7yqyWIZDWJ_g-29" target="FvHJdSDC7yqyWIZDWJ_g-32">
          <mxGeometry relative="1" as="geometry" />
        </mxCell>
        <mxCell id="FvHJdSDC7yqyWIZDWJ_g-29" value="&lt;font face=&quot;Consolas&quot;&gt;&lt;font color=&quot;#10c997&quot;&gt;&lt;span style=&quot;font-size: 17px&quot;&gt;vec&amp;lt;VkImage&amp;gt;&lt;/span&gt;&lt;/font&gt;&lt;br&gt;&lt;font color=&quot;#1a1a1a&quot;&gt;&lt;span style=&quot;font-size: 17px&quot;&gt;swapChainImages&lt;/span&gt;&lt;/font&gt;&lt;br&gt;&lt;/font&gt;" style="rounded=1;whiteSpace=wrap;html=1;" vertex="1" parent="1">
          <mxGeometry x="240" y="820" width="160" height="50" as="geometry" />
        </mxCell>
        <mxCell id="FvHJdSDC7yqyWIZDWJ_g-52" style="edgeStyle=orthogonalEdgeStyle;rounded=0;orthogonalLoop=1;jettySize=auto;html=1;exitX=0.5;exitY=1;exitDx=0;exitDy=0;entryX=0.5;entryY=0;entryDx=0;entryDy=0;" edge="1" parent="1" source="FvHJdSDC7yqyWIZDWJ_g-32" target="FvHJdSDC7yqyWIZDWJ_g-41">
          <mxGeometry relative="1" as="geometry">
            <Array as="points">
              <mxPoint x="320" y="1080" />
              <mxPoint x="433" y="1080" />
            </Array>
          </mxGeometry>
        </mxCell>
        <mxCell id="FvHJdSDC7yqyWIZDWJ_g-32" value="&lt;font face=&quot;Consolas&quot;&gt;&lt;font color=&quot;#10c997&quot;&gt;&lt;span style=&quot;font-size: 17px&quot;&gt;vec&amp;lt;VkImageView&amp;gt;&lt;/span&gt;&lt;/font&gt;&lt;br&gt;&lt;font color=&quot;#1a1a1a&quot;&gt;&lt;span style=&quot;font-size: 17px&quot;&gt;swapChainImageViews&lt;/span&gt;&lt;/font&gt;&lt;br&gt;&lt;/font&gt;" style="rounded=1;whiteSpace=wrap;html=1;" vertex="1" parent="1">
          <mxGeometry x="222.5" y="970" width="195" height="50" as="geometry" />
        </mxCell>
        <mxCell id="FvHJdSDC7yqyWIZDWJ_g-27" value="&lt;font color=&quot;#cfcf00&quot; face=&quot;Consolas&quot;&gt;&lt;span style=&quot;font-size: 11px&quot;&gt;vkCreateImageView&lt;/span&gt;&lt;/font&gt;" style="edgeLabel;html=1;align=center;verticalAlign=middle;resizable=0;points=[];" vertex="1" connectable="0" parent="1">
          <mxGeometry x="316.25" y="950" as="geometry">
            <mxPoint x="8" y="-8" as="offset" />
          </mxGeometry>
        </mxCell>
        <mxCell id="FvHJdSDC7yqyWIZDWJ_g-63" style="edgeStyle=orthogonalEdgeStyle;rounded=0;orthogonalLoop=1;jettySize=auto;html=1;exitX=0.5;exitY=1;exitDx=0;exitDy=0;entryX=0.5;entryY=0;entryDx=0;entryDy=0;" edge="1" parent="1" source="FvHJdSDC7yqyWIZDWJ_g-39" target="FvHJdSDC7yqyWIZDWJ_g-41">
          <mxGeometry relative="1" as="geometry">
            <Array as="points">
              <mxPoint x="611" y="1080" />
              <mxPoint x="433" y="1080" />
            </Array>
          </mxGeometry>
        </mxCell>
        <mxCell id="FvHJdSDC7yqyWIZDWJ_g-39" value="&lt;font face=&quot;Consolas&quot;&gt;&lt;font color=&quot;#10c997&quot;&gt;&lt;span style=&quot;font-size: 17px&quot;&gt;VkRenderPass&lt;/span&gt;&lt;/font&gt;&lt;br&gt;&lt;font color=&quot;#1a1a1a&quot;&gt;&lt;span style=&quot;font-size: 17px&quot;&gt;renderPass&lt;/span&gt;&lt;/font&gt;&lt;br&gt;&lt;/font&gt;" style="rounded=1;whiteSpace=wrap;html=1;" vertex="1" parent="1">
          <mxGeometry x="540" y="970" width="142.5" height="50" as="geometry" />
        </mxCell>
        <mxCell id="FvHJdSDC7yqyWIZDWJ_g-40" value="&lt;font face=&quot;Consolas&quot;&gt;&lt;font color=&quot;#10c997&quot;&gt;&lt;span style=&quot;font-size: 17px&quot;&gt;VkPipeline&lt;/span&gt;&lt;/font&gt;&lt;br&gt;&lt;font color=&quot;#1a1a1a&quot;&gt;&lt;span style=&quot;font-size: 17px&quot;&gt;graphicsPipeline&lt;/span&gt;&lt;/font&gt;&lt;br&gt;&lt;/font&gt;" style="rounded=1;whiteSpace=wrap;html=1;" vertex="1" parent="1">
          <mxGeometry x="-210" y="960" width="175" height="50" as="geometry" />
        </mxCell>
        <mxCell id="FvHJdSDC7yqyWIZDWJ_g-41" value="&lt;font face=&quot;Consolas&quot;&gt;&lt;font color=&quot;#10c997&quot;&gt;&lt;span style=&quot;font-size: 17px&quot;&gt;vec&amp;lt;VkFramebuffer&amp;gt;&lt;/span&gt;&lt;/font&gt;&lt;br&gt;&lt;font color=&quot;#1a1a1a&quot;&gt;&lt;span style=&quot;font-size: 17px&quot;&gt;swapChainFramebuffers&lt;/span&gt;&lt;/font&gt;&lt;br&gt;&lt;/font&gt;" style="rounded=1;whiteSpace=wrap;html=1;" vertex="1" parent="1">
          <mxGeometry x="325" y="1150" width="215" height="50" as="geometry" />
        </mxCell>
        <mxCell id="FvHJdSDC7yqyWIZDWJ_g-28" value="&lt;font color=&quot;#cfcf00&quot; face=&quot;Consolas&quot;&gt;&lt;span style=&quot;font-size: 11px&quot;&gt;vkCreateRenderPass&lt;/span&gt;&lt;/font&gt;" style="edgeLabel;html=1;align=center;verticalAlign=middle;resizable=0;points=[];" vertex="1" connectable="0" parent="1">
          <mxGeometry x="640" y="970" as="geometry">
            <mxPoint x="-26" y="58" as="offset" />
          </mxGeometry>
        </mxCell>
        <mxCell id="FvHJdSDC7yqyWIZDWJ_g-45" value="&lt;font color=&quot;#cfcf00&quot; face=&quot;Consolas&quot;&gt;&lt;span style=&quot;font-size: 11px&quot;&gt;vkCreateFramebuffer&lt;/span&gt;&lt;/font&gt;" style="edgeLabel;html=1;align=center;verticalAlign=middle;resizable=0;points=[];" vertex="1" connectable="0" parent="1">
          <mxGeometry x="940" y="1220" as="geometry">
            <mxPoint x="-26" y="58" as="offset" />
          </mxGeometry>
        </mxCell>
        <mxCell id="FvHJdSDC7yqyWIZDWJ_g-48" value="&lt;font color=&quot;#cfcf00&quot; face=&quot;Consolas&quot;&gt;&lt;span style=&quot;font-size: 11px&quot;&gt;vkCreateFramebuffer&lt;/span&gt;&lt;/font&gt;" style="edgeLabel;html=1;align=center;verticalAlign=middle;resizable=0;points=[];" vertex="1" connectable="0" parent="1">
          <mxGeometry x="1241" y="1090" as="geometry">
            <mxPoint x="-26" y="58" as="offset" />
          </mxGeometry>
        </mxCell>
        <mxCell id="FvHJdSDC7yqyWIZDWJ_g-49" value="&lt;font color=&quot;#cfcf00&quot; face=&quot;Consolas&quot;&gt;&lt;span style=&quot;font-size: 11px&quot;&gt;vkCreateFramebuffer&lt;/span&gt;&lt;/font&gt;" style="edgeLabel;html=1;align=center;verticalAlign=middle;resizable=0;points=[];" vertex="1" connectable="0" parent="1">
          <mxGeometry x="1210" y="1070" as="geometry">
            <mxPoint x="-26" y="58" as="offset" />
          </mxGeometry>
        </mxCell>
        <mxCell id="FvHJdSDC7yqyWIZDWJ_g-50" value="&lt;font color=&quot;#cfcf00&quot; face=&quot;Consolas&quot;&gt;&lt;span style=&quot;font-size: 11px&quot;&gt;vkCreateFramebuffer&lt;/span&gt;&lt;/font&gt;" style="edgeLabel;html=1;align=center;verticalAlign=middle;resizable=0;points=[];" vertex="1" connectable="0" parent="1">
          <mxGeometry x="460" y="1055" as="geometry">
            <mxPoint x="-26" y="58" as="offset" />
          </mxGeometry>
        </mxCell>
        <mxCell id="FvHJdSDC7yqyWIZDWJ_g-53" value="&lt;font face=&quot;Consolas&quot;&gt;&lt;font color=&quot;#10c997&quot;&gt;&lt;span style=&quot;font-size: 17px&quot;&gt;VkCommandPool&lt;/span&gt;&lt;/font&gt;&lt;br&gt;&lt;font color=&quot;#1a1a1a&quot;&gt;&lt;span style=&quot;font-size: 17px&quot;&gt;commandPool&lt;/span&gt;&lt;/font&gt;&lt;br&gt;&lt;/font&gt;" style="rounded=1;whiteSpace=wrap;html=1;" vertex="1" parent="1">
          <mxGeometry x="690" y="1480" width="175" height="50" as="geometry" />
        </mxCell>
        <mxCell id="FvHJdSDC7yqyWIZDWJ_g-65" style="edgeStyle=orthogonalEdgeStyle;rounded=0;orthogonalLoop=1;jettySize=auto;html=1;exitX=0.5;exitY=1;exitDx=0;exitDy=0;" edge="1" parent="1" source="FvHJdSDC7yqyWIZDWJ_g-54">
          <mxGeometry relative="1" as="geometry">
            <mxPoint x="-120" y="960" as="targetPoint" />
            <Array as="points">
              <mxPoint x="58" y="890" />
              <mxPoint x="-120" y="890" />
            </Array>
          </mxGeometry>
        </mxCell>
        <mxCell id="FvHJdSDC7yqyWIZDWJ_g-54" value="&lt;font face=&quot;Consolas&quot;&gt;&lt;font color=&quot;#10c997&quot;&gt;&lt;span style=&quot;font-size: 17px&quot;&gt;VkPipelineLayout&lt;/span&gt;&lt;/font&gt;&lt;br&gt;&lt;font color=&quot;#1a1a1a&quot;&gt;&lt;span style=&quot;font-size: 17px&quot;&gt;pipelineLayout&lt;/span&gt;&lt;/font&gt;&lt;br&gt;&lt;/font&gt;" style="rounded=1;whiteSpace=wrap;html=1;" vertex="1" parent="1">
          <mxGeometry x="-30" y="800" width="175" height="50" as="geometry" />
        </mxCell>
        <mxCell id="FvHJdSDC7yqyWIZDWJ_g-42" value="&lt;font color=&quot;#cfcf00&quot; face=&quot;Consolas&quot;&gt;&lt;span style=&quot;font-size: 11px&quot;&gt;vkCreateGraphicsPipelines&lt;/span&gt;&lt;/font&gt;" style="edgeLabel;html=1;align=center;verticalAlign=middle;resizable=0;points=[];" vertex="1" connectable="0" parent="1">
          <mxGeometry x="-100" y="870" as="geometry">
            <mxPoint x="-26" y="58" as="offset" />
          </mxGeometry>
        </mxCell>
      </root>
    </mxGraphModel>
  </diagram>
</mxfile>
